<?xml version="1.0" encoding="UTF-8"?>
<svg version="1.1" xmlns="http://www.w3.org/2000/svg" width="512" height="512">
<path d="M0 0 C2.28279778 0.0009678 4.56217125 -0.04066811 6.84448242 -0.08496094 C26.06738862 -0.24244373 41.83386045 6.96500984 55.8347168 20.21582031 C65.53432727 29.93203971 65.53432727 29.93203971 68.3034668 36.43847656 C69.35557122 38.7493798 69.35557122 38.7493798 71.1159668 40.50097656 C74.37297393 41.48205605 77.43773645 41.81988312 80.82299805 42.12207031 C87.76177373 42.92048222 93.55219076 46.42087414 99.1159668 50.50097656 C100.1059668 51.22285156 101.0959668 51.94472656 102.1159668 52.68847656 C109.0921916 58.67853346 114.30241129 68.2554637 115.48851871 77.36098766 C115.6284908 80.55060144 115.64934413 83.71888988 115.62390137 86.91149902 C115.63326131 88.73295449 115.63326131 88.73295449 115.64281034 90.59120703 C115.65593735 93.93589618 115.65130539 97.27967763 115.63886547 100.62431026 C115.62977466 104.24129544 115.64380458 107.8582042 115.65478516 111.47517395 C115.67253219 118.55053621 115.6687475 125.62572832 115.65713459 132.70109713 C115.64808547 138.45355217 115.64688266 144.20595968 115.65122986 149.9584198 C115.65184279 150.77845996 115.65245572 151.59850012 115.65308723 152.44338998 C115.65436618 154.10950634 115.65566304 155.77562269 115.65697759 157.44173902 C115.66837221 173.04940007 115.65528727 188.656967 115.63377613 204.26461262 C115.61590615 217.64439172 115.61901058 231.02403199 115.63745117 244.40380859 C115.65887768 259.95723139 115.66727368 275.51057179 115.65500212 291.06400728 C115.65372798 292.72384928 115.65247049 294.3836913 115.65122986 296.04353333 C115.65030421 297.26840895 115.65030421 297.26840895 115.64935985 298.51802954 C115.64591229 304.26075306 115.65172247 310.00342413 115.66114807 315.74613953 C115.67238924 322.74866716 115.66928366 329.75101554 115.6480251 336.75352275 C115.637543 340.32345113 115.63334384 343.89308109 115.6466217 347.46300697 C115.66081943 351.33898989 115.64381886 355.21448865 115.62390137 359.0904541 C115.6372857 360.76994715 115.6372857 360.76994715 115.65094042 362.48336935 C115.53003843 374.63399079 110.70047996 384.71992491 102.5534668 393.62597656 C92.30583277 403.48544264 80.09331503 405.7949246 66.47949219 405.81982422 C65.2202594 405.82986984 63.96102661 405.83991547 62.66363525 405.8502655 C59.22822169 405.87745254 55.79284887 405.89268116 52.35735631 405.90569353 C48.76052405 405.9213738 45.16377439 405.94814829 41.56700134 405.97372437 C34.76385834 406.02042578 27.96069965 406.05721154 21.15747875 406.09039724 C13.40892417 406.12867984 5.66045273 406.17807383 -2.08803165 406.2283814 C-18.01997199 406.3315727 -33.95195903 406.42087452 -49.8840332 406.50097656 C-49.63973572 407.50242706 -49.63973572 407.50242706 -49.39050293 408.52410889 C-47.69812069 415.46559189 -46.01211889 422.40860219 -44.32983398 429.35253906 C-43.70145134 431.94487133 -43.07041943 434.53651779 -42.43823242 437.12792969 C-41.53046312 440.85021136 -40.62855071 444.57387018 -39.7277832 448.29785156 C-39.44342407 449.4583905 -39.15906494 450.61892944 -38.86608887 451.81463623 C-38.4756842 453.43586395 -38.4756842 453.43586395 -38.07739258 455.08984375 C-37.84644897 456.0402655 -37.61550537 456.99068726 -37.37756348 457.96990967 C-36.8840332 460.50097656 -36.8840332 460.50097656 -36.8840332 464.50097656 C-35.84061768 464.4800293 -34.79720215 464.45908203 -33.72216797 464.4375 C-29.814107 464.36455476 -25.90610496 464.31898092 -21.99755859 464.28125 C-20.312885 464.2612577 -18.6282797 464.23405434 -16.94384766 464.19921875 C0.88068206 463.84008748 0.88068206 463.84008748 8.1159668 468.50097656 C8.76331787 468.87931641 9.41066895 469.25765625 10.07763672 469.64746094 C18.36149836 474.6442619 21.16859468 482.65886022 24.1159668 491.50097656 C24.1159668 498.10097656 24.1159668 504.70097656 24.1159668 511.50097656 C-84.4540332 511.50097656 -193.0240332 511.50097656 -304.8840332 511.50097656 C-304.8840332 483.7308567 -304.8840332 483.7308567 -294.5715332 472.68847656 C-287.53839733 466.06995787 -280.26420162 464.33800519 -270.8371582 464.40332031 C-269.68035553 464.40544273 -269.68035553 464.40544273 -268.50018311 464.40760803 C-266.04475982 464.41319123 -263.58942878 464.42574061 -261.1340332 464.43847656 C-259.46606577 464.44349374 -257.79809691 464.44805626 -256.13012695 464.45214844 C-252.04806033 464.46315515 -247.96606239 464.4804082 -243.8840332 464.50097656 C-243.72692871 463.67122314 -243.56982422 462.84146973 -243.40795898 461.98657227 C-241.35850283 451.43564203 -238.9432373 440.9866485 -236.44018555 430.53491211 C-235.74955628 427.64887391 -235.06460447 424.76152614 -234.38012695 421.87402344 C-233.94165744 420.03475142 -233.50286764 418.19555571 -233.0637207 416.35644531 C-232.85955536 415.49512497 -232.65539001 414.63380463 -232.44503784 413.74638367 C-230.99915271 407.73121558 -230.99915271 407.73121558 -229.8840332 405.50097656 C-230.54295689 405.50466373 -231.20188057 405.50835091 -231.88077164 405.51214981 C-247.95780591 405.60071568 -264.03475463 405.66679017 -280.11197281 405.70822525 C-287.88699386 405.7287986 -295.66185147 405.75681834 -303.43676758 405.80273438 C-310.21807527 405.8427632 -316.99926453 405.86844731 -323.78068709 405.87733054 C-327.36720819 405.88251836 -330.95339063 405.89460038 -334.53980255 405.92389679 C-338.55606224 405.9564345 -342.57174348 405.95692578 -346.58813477 405.95507812 C-347.76058746 405.96945923 -348.93304016 405.98384033 -350.14102173 405.99865723 C-363.66812616 405.93166768 -374.16023533 401.55963191 -384.10668945 392.46972656 C-390.94831109 385.4107076 -395.99822497 375.51460745 -396.01825428 365.55264187 C-396.02271212 364.52523402 -396.02716997 363.49782616 -396.0317629 362.43928474 C-396.03157854 361.30701472 -396.03139417 360.17474469 -396.03120422 359.00816345 C-396.03488091 357.80800789 -396.0385576 356.60785233 -396.0423457 355.37132841 C-396.05147489 352.03393455 -396.05608276 348.69658988 -396.05873501 345.3591882 C-396.06263768 341.76187127 -396.07221616 338.16456858 -396.08094788 334.56726074 C-396.10071509 325.87576898 -396.11077959 317.18427605 -396.11967567 308.49276742 C-396.12405883 304.39919019 -396.12942563 300.30561425 -396.13466454 296.21203804 C-396.15167836 282.60237236 -396.16617174 268.99270748 -396.17341328 255.3830328 C-396.17532316 251.85081417 -396.17724349 248.31859555 -396.17919922 244.78637695 C-396.17968296 243.9084652 -396.1801667 243.03055346 -396.1806651 242.12603832 C-396.18896237 227.90981943 -396.21429347 213.69368476 -396.2467799 199.47750264 C-396.2798658 184.87985749 -396.29786349 170.28225512 -396.30105752 155.68457228 C-396.30322138 147.4894546 -396.3119517 139.29445969 -396.33751869 131.09937859 C-396.35924677 124.11866564 -396.36726585 117.13810526 -396.35755191 110.15736233 C-396.35301303 106.59758992 -396.35486883 103.03813217 -396.37431335 99.47840309 C-396.39524433 95.61303069 -396.3849407 91.74808952 -396.3717804 87.88267517 C-396.38274964 86.7660202 -396.39371889 85.64936522 -396.40502053 84.49887222 C-396.31135599 73.08497068 -392.11338254 63.26666942 -384.4465332 54.81347656 C-383.6009082 54.05035156 -382.7552832 53.28722656 -381.8840332 52.50097656 C-381.0177832 51.67597656 -380.1515332 50.85097656 -379.2590332 50.00097656 C-373.00586426 44.85513962 -364.53697165 41.34812536 -356.41921997 41.40332031 C-355.53049194 41.40653793 -354.64176392 41.40975555 -353.72610474 41.41307068 C-352.75873383 41.42145462 -351.79136292 41.42983856 -350.79467773 41.43847656 C-348.6709097 41.44792022 -346.54714049 41.45710403 -344.42337036 41.46606445 C-343.29819126 41.4723587 -342.17301216 41.47865295 -341.01373672 41.48513794 C-335.05774694 41.51211467 -329.10178573 41.502233 -323.14575195 41.49707031 C-315.56520394 41.49085619 -307.98540222 41.49629294 -300.4050293 41.55224609 C-294.27919853 41.59648792 -288.1547408 41.59707681 -282.0288353 41.56811523 C-279.69482935 41.56503246 -277.36074533 41.57795336 -275.02692032 41.60717773 C-271.76044245 41.64582973 -268.49864527 41.62868713 -265.23217773 41.59863281 C-264.26885529 41.6232106 -263.30553284 41.64778839 -262.3130188 41.67311096 C-259.55841827 41.61354189 -257.46769078 41.4668896 -254.8840332 40.50097656 C-252.28392649 37.7798811 -250.64112913 34.80397624 -248.8840332 31.50097656 C-238.67537171 19.03731964 -223.81015958 10.97426469 -207.8840332 8.50097656 C-188.05531064 7.48612068 -170.75647884 11.0743339 -155.2121582 24.25097656 C-144.64288276 34.46557833 -144.64288276 34.46557833 -142.8840332 41.50097656 C-117.4740332 41.50097656 -92.0640332 41.50097656 -65.8840332 41.50097656 C-65.2240332 39.52097656 -64.5640332 37.54097656 -63.8840332 35.50097656 C-61.80022851 32.3010443 -59.326788 29.4332814 -56.8840332 26.50097656 C-56.34649414 25.81648438 -55.80895508 25.13199219 -55.25512695 24.42675781 C-41.56815544 7.63960481 -21.0605087 -0.06270008 0 0 Z M-233.8840332 41.50097656 C-210.4540332 41.50097656 -187.0240332 41.50097656 -162.8840332 41.50097656 C-173.31936509 31.06564467 -183.4649086 25.04668719 -198.5715332 25.00097656 C-213.42954244 25.29316518 -224.19149666 29.86993271 -233.8840332 41.50097656 Z " fill="#FE491F" transform="translate(396.884033203125,-0.5009765625)"/>
<path d="M0 0 C2.28279778 0.0009678 4.56217125 -0.04066811 6.84448242 -0.08496094 C26.06738862 -0.24244373 41.83386045 6.96500984 55.8347168 20.21582031 C65.53432727 29.93203971 65.53432727 29.93203971 68.3034668 36.43847656 C69.35557122 38.7493798 69.35557122 38.7493798 71.1159668 40.50097656 C74.37297393 41.48205605 77.43773645 41.81988312 80.82299805 42.12207031 C87.76177373 42.92048222 93.55219076 46.42087414 99.1159668 50.50097656 C100.1059668 51.22285156 101.0959668 51.94472656 102.1159668 52.68847656 C109.05821201 58.64935727 114.2789825 68.20542628 115.4838109 77.26779199 C115.61640277 80.30904322 115.63031091 83.32738974 115.59698486 86.37136841 C115.60040256 87.52739087 115.60382026 88.68341333 115.60734153 89.87446678 C115.61390142 93.72695195 115.59197436 97.57873194 115.57006836 101.43115234 C115.56670808 104.20106951 115.56939864 106.97097317 115.57183838 109.7408905 C115.57392981 115.69344431 115.56144261 121.64582195 115.53888702 127.59833145 C115.50629738 136.20449562 115.49595291 144.8105751 115.49093506 153.41679429 C115.48219329 167.38175222 115.45560817 181.34661638 115.41772461 195.31152344 C115.3809755 208.87239116 115.35272385 222.43323322 115.33569336 235.99414062 C115.33462137 236.839379 115.33354938 237.68461738 115.33244491 238.55546904 C115.3241266 245.16636645 115.31629912 251.77726442 115.30862665 258.38816261 C115.27093201 290.75918668 115.19044948 323.12997585 115.1159668 355.50097656 C71.5559668 355.50097656 27.9959668 355.50097656 -16.8840332 355.50097656 C-18.06203519 347.84396367 -19.20958109 340.29083383 -19.99731445 332.60253906 C-20.09174835 331.70663559 -20.18618225 330.81073212 -20.28347778 329.88768005 C-20.59067444 326.96740259 -20.89357661 324.04669666 -21.1965332 321.12597656 C-21.41568229 319.03666748 -21.63517174 316.94739408 -21.85498047 314.8581543 C-22.30967967 310.53366681 -22.76293542 306.20903183 -23.21508789 301.88427734 C-24.13882444 293.05777627 -25.07845334 284.23297788 -26.01879883 275.40823364 C-26.32243033 272.55504641 -26.624857 269.70173367 -26.92700195 266.84838867 C-27.97075771 257.00281276 -29.02796208 247.15888886 -30.10795593 237.31721497 C-30.6697424 232.19458101 -31.22765379 227.07152767 -31.78543091 221.94845581 C-32.05696895 219.46494396 -32.33043079 216.98164161 -32.60592651 214.49856567 C-32.99123921 211.02462082 -33.36991398 207.55000737 -33.74731445 204.07519531 C-33.92035599 202.53915146 -33.92035599 202.53915146 -34.09689331 200.97207642 C-34.20107574 200.00152313 -34.30525818 199.03096985 -34.41259766 198.03100586 C-34.54986015 196.7847065 -34.54986015 196.7847065 -34.68989563 195.51322937 C-34.96889142 191.18431028 -34.8840332 186.83887688 -34.8840332 182.50097656 C-51.7140332 182.50097656 -68.5440332 182.50097656 -85.8840332 182.50097656 C-88.08870818 163.05259371 -90.21899465 143.60478548 -92.1340332 124.12597656 C-92.22261597 123.23476105 -92.31119873 122.34354553 -92.40246582 121.42532349 C-92.65477748 118.88053398 -92.90293112 116.3353754 -93.1496582 113.79003906 C-93.22446411 113.03835953 -93.29927002 112.28667999 -93.37634277 111.51222229 C-93.76288009 107.46130081 -93.8840332 103.58930986 -93.8840332 99.50097656 C-107.4140332 99.50097656 -120.9440332 99.50097656 -134.8840332 99.50097656 C-135.1965332 82.87597656 -135.1965332 82.87597656 -135.27197266 77.72509766 C-135.5389045 64.5607912 -137.46700483 53.6892904 -142.8840332 41.50097656 C-117.4740332 41.50097656 -92.0640332 41.50097656 -65.8840332 41.50097656 C-64.8940332 38.53097656 -64.8940332 38.53097656 -63.8840332 35.50097656 C-61.80022851 32.3010443 -59.326788 29.4332814 -56.8840332 26.50097656 C-56.34649414 25.81648438 -55.80895508 25.13199219 -55.25512695 24.42675781 C-41.56815544 7.63960481 -21.0605087 -0.06270008 0 0 Z " fill="#C3E1F1" transform="translate(396.884033203125,-0.5009765625)"/>
<path d="M0 0 C168.63 0 337.26 0 511 0 C511 18.73442623 511 18.73442623 507 26 C506.63777344 26.69351562 506.27554687 27.38703125 505.90234375 28.1015625 C499.53919321 39.27482345 489.56495861 46.14966941 477.22776604 49.57700729 C472.3350386 50.50600432 467.32647514 50.30977044 462.36352539 50.31884766 C461.1042926 50.32889328 459.84505981 50.3389389 458.54766846 50.34928894 C455.11225489 50.37647598 451.67688208 50.39170459 448.24138951 50.40471697 C444.64455725 50.42039724 441.0478076 50.44717173 437.45103455 50.4727478 C430.64789154 50.51944921 423.84473285 50.55623498 417.04151195 50.58942068 C409.29295737 50.62770328 401.54448594 50.67709727 393.79600155 50.72740483 C377.86406122 50.83059613 361.93207417 50.91989796 346 51 C346.24429749 52.0014505 346.24429749 52.0014505 346.49353027 53.02313232 C348.18591251 59.96461533 349.87191431 66.90762563 351.55419922 73.8515625 C352.18258186 76.44389477 352.81361377 79.03554123 353.44580078 81.62695312 C354.35357009 85.3492348 355.25548249 89.07289361 356.15625 92.796875 C356.44060913 93.95741394 356.72496826 95.11795288 357.01794434 96.31365967 C357.408349 97.93488739 357.408349 97.93488739 357.80664062 99.58886719 C358.03758423 100.53928894 358.26852783 101.48971069 358.50646973 102.46893311 C359 105 359 105 359 109 C360.56512329 108.9685791 360.56512329 108.9685791 362.16186523 108.93652344 C366.06992621 108.8635782 369.97792824 108.81800436 373.88647461 108.78027344 C375.57114821 108.76028114 377.25575351 108.73307777 378.94018555 108.69824219 C396.76471526 108.33911092 396.76471526 108.33911092 404 113 C404.64735107 113.37833984 405.29470215 113.75667969 405.96166992 114.14648438 C414.24553156 119.14328534 417.05262789 127.15788366 420 136 C420 142.6 420 149.2 420 156 C311.43 156 202.86 156 91 156 C91 128.22988014 91 128.22988014 101.3125 117.1875 C108.34563588 110.5689813 115.61983158 108.83702863 125.046875 108.90234375 C126.20367767 108.90446617 126.20367767 108.90446617 127.3838501 108.90663147 C129.83927338 108.91221466 132.29460442 108.92476405 134.75 108.9375 C136.41796743 108.94251717 138.08593629 108.9470797 139.75390625 108.95117188 C143.83597287 108.96217859 147.91797081 108.97943164 152 109 C152.23565674 107.75536987 152.23565674 107.75536987 152.47607422 106.4855957 C154.52553037 95.93466547 156.9407959 85.48567194 159.44384766 75.03393555 C160.13447692 72.14789735 160.81942873 69.26054958 161.50390625 66.37304688 C161.94237577 64.53377485 162.38116556 62.69457915 162.8203125 60.85546875 C163.02447784 59.99414841 163.22864319 59.13282806 163.43899536 58.2454071 C164.88488049 52.23023902 164.88488049 52.23023902 166 50 C165.34107632 50.00368717 164.68215263 50.00737434 164.00326157 50.01117325 C147.92622729 50.09973912 131.84927857 50.16581361 115.77206039 50.20724869 C107.99703934 50.22782204 100.22218173 50.25584178 92.44726562 50.30175781 C85.66595793 50.34178663 78.88476868 50.36747075 72.10334611 50.37635398 C68.51682501 50.3815418 64.93064257 50.39362382 61.34423065 50.42292023 C57.32797096 50.45545794 53.31228973 50.45594922 49.29589844 50.45410156 C47.53721939 50.47567322 47.53721939 50.47567322 45.74301147 50.49768066 C32.21590704 50.43069111 21.72379787 46.05865535 11.77734375 36.96875 C1.27756403 26.13533242 0 14.71639261 0 0 Z " fill="#3B3E4C" transform="translate(1,355)"/>
<path d="M0 0 C48.18 0 96.36 0 146 0 C147.98 18.81 147.98 18.81 150 38 C150.89774321 46.45502899 151.79566911 54.90998624 152.70043945 63.36425781 C152.94410489 65.64285009 153.18725963 67.92149702 153.42993164 70.20019531 C154.88731032 83.88470142 156.38615388 97.56276502 157.99488831 111.23040771 C158.93702383 119.275404 159.72044629 127.3289153 160.4609375 135.39453125 C161.22372341 143.52642733 162.13498175 151.64358543 163.03515625 159.76123047 C163.16019531 160.90350098 163.28523437 162.04577148 163.4140625 163.22265625 C163.5270166 164.24109619 163.6399707 165.25953613 163.75634766 166.30883789 C164 169 164 169 164 173 C103.94 173 43.88 173 -18 173 C-17.3947938 162.71149455 -16.73887522 152.65043221 -15.50149536 142.45227051 C-15.04485234 138.68054652 -14.60730622 134.90658484 -14.16796875 131.1328125 C-14.07358017 130.32444946 -13.97919159 129.51608643 -13.88194275 128.68322754 C-12.70471432 118.54646691 -11.63480529 108.39829722 -10.5625 98.25 C-10.35205379 96.26188119 -10.14160456 94.2737627 -9.93115234 92.28564453 C-9.50349031 88.24257395 -9.07649143 84.19943392 -8.64990234 80.15625 C-7.66731657 70.84493012 -6.67976503 61.53413835 -5.69064331 52.22351074 C-5.38892383 49.3811691 -5.08808337 46.53873555 -4.78735352 43.69628906 C-3.24072426 29.12482736 -1.61825132 14.56426188 0 0 Z " fill="#FEE04D" transform="translate(216,182)"/>
<path d="M0 0 C0.89739899 -0.00137466 1.79479797 -0.00274933 2.71939087 -0.00416565 C4.18458664 0.00122726 4.18458664 0.00122726 5.67938232 0.00672913 C6.71384491 0.0065831 7.7483075 0.00643707 8.81411743 0.00628662 C12.23374528 0.00698335 15.65331868 0.01476458 19.07293701 0.02259827 C21.44376597 0.0244633 23.81459532 0.0258868 26.1854248 0.02688599 C32.42597518 0.03070446 38.66650228 0.04052906 44.90704346 0.05158997 C51.27483811 0.06181846 57.64263652 0.06638669 64.01043701 0.07142639 C76.5052389 0.0821519 89.00002352 0.09922032 101.49481201 0.12025452 C99.8998096 4.93607098 98.18197415 9.68837034 96.39715576 14.43666077 C94.60600656 19.76358503 94.30088684 24.89522439 94.17840576 30.48353577 C94.15042908 31.53752563 94.15042908 31.53752563 94.12188721 32.61280823 C94.05396415 35.21933799 93.9935773 37.82605976 93.93231201 40.43275452 C93.78793701 46.26962952 93.64356201 52.10650452 93.49481201 58.12025452 C80.29481201 58.12025452 67.09481201 58.12025452 53.49481201 58.12025452 C53.07135498 63.11859436 53.07135498 63.11859436 52.63934326 68.21791077 C51.62263593 80.01304211 50.42899747 91.78506736 49.18231201 103.55775452 C48.96406923 105.63455378 48.74605729 107.71137731 48.52825928 109.78822327 C48.0772941 114.08633696 47.62536093 118.38434698 47.17254639 122.68226624 C46.08643418 132.99429824 45.00841051 143.30717334 43.93231201 153.62025452 C43.7771109 155.10623642 43.7771109 155.10623642 43.61877441 156.62223816 C41.97914506 172.32992589 40.38475968 188.0417856 38.83831787 203.75892639 C38.12528607 210.9836538 37.38435117 218.20318693 36.56903076 225.41712952 C35.10083494 238.43150502 33.81345901 251.46506863 32.49481201 264.49525452 C32.2318661 267.08640795 31.96884568 269.67755383 31.70574951 272.26869202 C30.29045952 286.21807253 28.88995526 300.168822 27.49481201 314.12025452 C5.38481201 314.12025452 -16.72518799 314.12025452 -39.50518799 314.12025452 C-39.59340394 278.62011863 -39.66724743 243.12008629 -39.70944931 207.61987213 C-39.71445201 203.42680278 -39.71962931 199.23373367 -39.72491455 195.04066467 C-39.72596379 194.20591564 -39.72701303 193.37116661 -39.72809407 192.51112215 C-39.74548959 179.00280129 -39.77702257 165.49454865 -39.81379917 151.98626824 C-39.85123236 138.12097205 -39.87342887 124.25571155 -39.88154197 110.39036691 C-39.88702482 101.83772577 -39.90432908 93.2852775 -39.93685386 84.73269574 C-39.95803111 78.86435141 -39.96438078 72.9961065 -39.9591935 67.12772675 C-39.95663662 63.74408562 -39.96269989 60.36105178 -39.98200989 56.97742462 C-40.00195361 53.30224352 -39.99711005 49.62788316 -39.98620605 45.9526825 C-39.99785742 44.89234539 -40.00950879 43.83200828 -40.02151322 42.73953974 C-39.93168488 31.51396238 -35.59413986 21.73115017 -28.06768799 13.43275452 C-27.22206299 12.66962952 -26.37643799 11.90650452 -25.50518799 11.12025452 C-24.63893799 10.29525452 -23.77268799 9.47025452 -22.88018799 8.62025452 C-16.60324499 3.45485351 -8.14011667 -0.00964469 0 0 Z " fill="#C4E1F1" transform="translate(40.50518798828125,40.87974548339844)"/>
<path d="M0 0 C168.63 0 337.26 0 511 0 C511 18.73442623 511 18.73442623 507 26 C506.63777344 26.69351562 506.27554687 27.38703125 505.90234375 28.1015625 C499.71137915 38.97247661 490.55054218 45.17400154 478.79103106 49.06058085 C474.8861135 50.02822112 471.30632327 50.28130172 467.31615925 50.25726891 C466.19764255 50.26252802 466.19764255 50.26252802 465.05652955 50.26789337 C462.5618881 50.27718531 460.06748122 50.27228979 457.5728302 50.26742554 C455.76455184 50.27116291 453.95627509 50.27576479 452.1480009 50.28115618 C447.18167427 50.29339088 442.21541498 50.29312515 437.24907672 50.29076743 C431.89171808 50.29035938 426.53438105 50.30139733 421.17703247 50.31088257 C410.68162117 50.32749641 400.18623234 50.3329923 389.69080899 50.33410732 C381.15894293 50.33505767 372.62708428 50.33916729 364.09522057 50.34550858 C339.90418683 50.36312247 315.71317084 50.37234728 291.52213065 50.37084763 C289.56585981 50.37072776 289.56585981 50.37072776 287.57006836 50.37060547 C286.26429471 50.37052371 284.95852106 50.37044195 283.61317851 50.37035771 C262.45352537 50.36954489 241.29394343 50.38868112 220.13431088 50.4168822 C198.40614781 50.44561241 176.67801946 50.4594224 154.94983691 50.45769465 C142.75179869 50.45703077 130.55383509 50.46252219 118.35581398 50.48405075 C107.96947146 50.50226436 97.58323738 50.50660839 87.1968858 50.4930319 C81.89920251 50.48650307 76.60172728 50.48638216 71.3040638 50.5037384 C66.44992856 50.51947774 61.59616619 50.51659652 56.74204 50.49917014 C54.99036329 50.49610215 53.23865868 50.499725 51.48701487 50.51089029 C35.72787409 50.60465155 23.68572599 47.85163008 11.77734375 36.96875 C1.27756403 26.13533242 0 14.71639261 0 0 Z " fill="#3D404D" transform="translate(1,355)"/>
<path d="M0 0 C2.28279778 0.0009678 4.56217125 -0.04066811 6.84448242 -0.08496094 C26.04807685 -0.24228552 41.8966394 6.94691249 55.84643555 20.24316406 C56.59538086 20.98824219 57.34432617 21.73332031 58.1159668 22.50097656 C59.16204102 23.49484375 59.16204102 23.49484375 60.22924805 24.50878906 C73.82429916 38.3942199 79.36442669 58.82959291 79.29443359 77.75610352 C79.22554739 83.28212147 78.82277552 88.22053709 77.1159668 93.50097656 C76.7859668 94.63792969 76.4559668 95.77488281 76.1159668 96.94628906 C72.1436426 110.16252503 65.89818678 120.6701694 56.1159668 130.50097656 C55.37862305 131.273125 54.6412793 132.04527344 53.8815918 132.84082031 C39.77274399 146.68926992 19.61491296 152.77517189 0.21459961 152.74755859 C-20.10958381 152.44903437 -38.17756175 143.82776211 -52.8215332 130.00097656 C-68.97867717 112.58536158 -74.87256202 91.35032344 -74.06323242 68.16162109 C-73.04919591 53.10580376 -66.79305166 37.76619623 -56.8840332 26.50097656 C-56.35165039 25.82679687 -55.81926758 25.15261719 -55.27075195 24.45800781 C-41.63466952 7.63257914 -21.04234898 -0.06264602 0 0 Z " fill="#32CC77" transform="translate(396.884033203125,-0.5009765625)"/>
<path d="M0 0 C59.07 0 118.14 0 179 0 C182 9 182 9 184 19 C137.8 19 91.6 19 44 19 C43.67 21.64 43.34 24.28 43 27 C42.5890157 29.00892173 42.14414579 31.01131278 41.66015625 33.00390625 C41.2724707 34.60975586 41.2724707 34.60975586 40.87695312 36.24804688 C40.60818359 37.34181641 40.33941406 38.43558594 40.0625 39.5625 C39.79759766 40.66013672 39.53269531 41.75777344 39.25976562 42.88867188 C37.94671135 48.29402436 36.5837014 53.66744021 35 59 C33.84383179 59.01401855 33.84383179 59.01401855 32.66430664 59.02832031 C29.12975194 59.08241658 25.59646518 59.16598842 22.0625 59.25 C20.85013672 59.26417969 19.63777344 59.27835937 18.38867188 59.29296875 C11.04607746 59.49195505 5.39207163 60.3026166 -1 64 C-1.79792969 64.44601562 -2.59585938 64.89203125 -3.41796875 65.3515625 C-10.0936103 70.15566657 -14.45390473 76.56656504 -16.3125 84.625 C-17.21928534 91.71441264 -17.55417182 98.86674909 -18 106 C-36.81 106 -55.62 106 -75 106 C-75 78.22988014 -75 78.22988014 -64.6875 67.1875 C-57.65436412 60.5689813 -50.38016842 58.83702863 -40.953125 58.90234375 C-39.79632233 58.90446617 -39.79632233 58.90446617 -38.6161499 58.90663147 C-36.16072662 58.91221466 -33.70539558 58.92476405 -31.25 58.9375 C-29.58203257 58.94251717 -27.91406371 58.9470797 -26.24609375 58.95117188 C-22.16402713 58.96217859 -18.08202919 58.97943164 -14 59 C-13.84289551 58.17024658 -13.68579102 57.34049316 -13.52392578 56.4855957 C-11.47446963 45.93466547 -9.0592041 35.48567194 -6.55615234 25.03393555 C-5.86552308 22.14789735 -5.18057127 19.26054958 -4.49609375 16.37304688 C-4.05762423 14.53377485 -3.61883444 12.69457915 -3.1796875 10.85546875 C-2.97552216 9.99414841 -2.77135681 9.13282806 -2.56100464 8.2454071 C-1.11511951 2.23023902 -1.11511951 2.23023902 0 0 Z " fill="#2D303B" transform="translate(167,405)"/>
<path d="M0 0 C1.63615742 -0.00352629 3.27231098 -0.00987226 4.90844727 -0.01890564 C8.33202918 -0.02764618 11.7534889 -0.0044763 15.17675781 0.04174805 C19.55605364 0.09863391 23.9310539 0.07948047 28.31037903 0.03679562 C31.68739823 0.01171974 35.06341508 0.02533965 38.44039917 0.0506916 C40.05425597 0.0585192 41.66821258 0.05483104 43.28201294 0.03922844 C55.84136752 -0.04796208 55.84136752 -0.04796208 59.73564148 2.89962769 C61.30449652 4.93964754 62.40613999 6.80953308 63.4375 9.16015625 C63.98019531 10.2378125 64.52289063 11.31546875 65.08203125 12.42578125 C65.46746094 13.410625 65.85289062 14.39546875 66.25 15.41015625 C66.64832031 16.4053125 67.04664063 17.40046875 67.45703125 18.42578125 C72.39065724 32.18489755 69.4375 41.05720129 69.4375 59.16015625 C37.4275 59.16015625 5.4175 59.16015625 -27.5625 59.16015625 C-27.5625 14.99634415 -27.5625 14.99634415 -18.74267578 2.78445435 C-13.57694268 -1.06417589 -6.16245234 -0.09200452 0 0 Z " fill="#C3E1F1" transform="translate(177.5625,39.83984375)"/>
<path d="M0 0 C7.74383271 6.65207924 13.46544359 13.94918334 17.625 23.25 C17.90754639 23.87777344 18.19009277 24.50554688 18.48120117 25.15234375 C22.77264849 35.44865894 23.01147981 46.17575456 23.0234375 57.18359375 C23.0298805 58.59318674 23.03660992 60.00277844 23.04360962 61.41236877 C23.05548863 64.34289661 23.0592993 67.27330727 23.05810547 70.20385742 C23.05790068 73.95545103 23.08540674 77.70630067 23.11964989 81.45771694 C23.14187266 84.35823529 23.14594476 87.25857156 23.14488602 90.15916634 C23.14724109 91.54305696 23.15605949 92.92695267 23.17155075 94.31075859 C23.19114993 96.23889254 23.1828658 98.16724896 23.17333984 100.09545898 C23.17618988 101.19035141 23.17903992 102.28524384 23.18197632 103.41331482 C22.56692616 106.9417015 21.51897833 108.11447645 18.6875 110.25 C15.1875 110.8125 15.1875 110.8125 11.6875 110.25 C9.08064846 107.68213346 7.81736425 106.00857104 7.19543457 102.37571716 C7.19861694 101.32159134 7.20179932 100.26746552 7.20507812 99.18139648 C7.19827026 97.97921982 7.1914624 96.77704315 7.18444824 95.53843689 C7.19576782 94.24571365 7.2070874 92.95299042 7.21875 91.62109375 C7.21391649 90.26692207 7.20675606 88.91275691 7.1973877 87.55860901 C7.16784089 82.54678703 7.18083383 77.5352406 7.19256592 72.52337646 C7.20084141 68.2917207 7.19252363 64.06068738 7.16343689 59.82911873 C7.15644755 57.86413374 7.17315548 55.89910925 7.19055176 53.93418884 C7.1173624 40.77271811 3.46980551 28.72264733 -5.5 18.83984375 C-17.22846678 7.58126747 -29.86647727 3.69042894 -45.671875 4.0078125 C-55.92650838 4.42110778 -63.04349926 8.34720562 -71.3125 14.25 C-71.98539063 14.724375 -72.65828125 15.19875 -73.3515625 15.6875 C-81.37598739 21.90908053 -85.71575392 31.64441728 -88.3125 41.25 C-88.85656634 46.07629553 -88.87063762 50.85766984 -88.8515625 55.7109375 C-88.86149523 57.07330892 -88.87344613 58.43566695 -88.88729858 59.79800415 C-88.91937048 63.35029921 -88.93002798 66.90228636 -88.93414307 70.45471191 C-88.94296707 76.15951098 -88.97853025 81.86406136 -89.0263176 87.56865311 C-89.03883542 89.54999413 -89.03756569 91.53140688 -89.03604126 93.51278687 C-89.04647964 95.3208934 -89.04647964 95.3208934 -89.05712891 97.16552734 C-89.05838776 98.22266937 -89.05964661 99.2798114 -89.0609436 100.36898804 C-89.32694257 103.41540713 -89.89964589 105.54290985 -91.3125 108.25 C-94.83074511 110.59549674 -96.17025694 110.82991403 -100.3125 110.25 C-102.94820396 108.61004411 -103.88970426 107.91637662 -105.3125 105.25 C-106.07122047 100.59863521 -105.99202901 95.95341616 -105.94140625 91.25390625 C-105.9422363 89.85969355 -105.94470082 88.46548097 -105.94871521 87.0712738 C-105.95157183 84.14658182 -105.93690458 81.22265603 -105.90942383 78.2980957 C-105.8756247 74.58977662 -105.88126391 70.88285231 -105.9000864 67.17446995 C-105.91078382 64.29061254 -105.90160039 61.40706595 -105.88670158 58.52323723 C-105.87914091 56.50407537 -105.88630282 54.48487509 -105.89393616 52.4657135 C-105.67417019 34.92293913 -99.87012918 18.05948968 -87.47265625 5.3515625 C-86.75980469 4.65804688 -86.04695313 3.96453125 -85.3125 3.25 C-84.79558594 2.70085938 -84.27867187 2.15171875 -83.74609375 1.5859375 C-61.2015457 -20.4288431 -23.73803464 -17.89539144 0 0 Z " fill="#3D3F4D" transform="translate(239.3125,21.75)"/>
<path d="M0 0 C6.6 0 13.2 0 20 0 C19.51209433 13.29542961 18.12873339 26.41744186 16.54785156 39.6184082 C15.51940201 48.23758461 14.61415023 56.85867877 13.8104248 65.5017395 C12.79184041 76.37237994 11.61895891 87.22641067 10.45043945 98.08178711 C10.06484862 101.66567072 9.68169935 105.24980932 9.29882812 108.83398438 C7.93250344 121.58194541 6.52935449 134.32394206 4.99879456 147.0533905 C4.24622674 153.42508793 3.68737366 159.7863595 3.26820374 166.18901062 C3 169 3 169 2 173 C-4.6 173 -11.2 173 -18 173 C-17.36782221 165.24921454 -16.68337891 157.50781933 -15.9140625 149.76953125 C-15.81256393 148.74379501 -15.71106537 147.71805878 -15.60649109 146.66123962 C-15.28078251 143.37817972 -14.9531319 140.09531854 -14.625 136.8125 C-14.51328461 135.69161987 -14.40156921 134.57073975 -14.28646851 133.41589355 C-12.96865766 120.21911952 -11.60584156 107.03726852 -9.95141602 93.87792969 C-9.19061293 87.78064413 -8.58377751 81.68469002 -8.0625 75.5625 C-7.20072645 65.45624651 -6.01243746 55.39647299 -4.80117798 45.32772827 C-2.98919173 30.23773401 -1.4534017 15.12859045 0 0 Z " fill="#ED3718" transform="translate(196,182)"/>
<path d="M0 0 C2.19506836 1.47021484 2.19506836 1.47021484 4 4 C4.38276968 7.04752932 4.53418412 9.74394746 4.50390625 12.7890625 C4.51332748 13.64752777 4.52274872 14.50599304 4.53245544 15.39047241 C4.56110551 18.13555685 4.56418596 20.87977828 4.5625 23.625 C3.88241371 43.47810042 3.88241371 43.47810042 12.9921875 60.3046875 C18.78029025 65.19191823 24.79116352 66.69098777 32.29296875 66.38671875 C40.20943424 65.25579511 46.94492411 61.03706457 51.75 54.6875 C54.81376647 48.10040209 55.28210591 41.74846726 55.2734375 34.609375 C55.29370439 32.83072262 55.31455471 31.05207681 55.3359375 29.2734375 C55.35861715 26.49961725 55.37505014 23.72605752 55.38085938 20.95214844 C55.39036292 18.25409311 55.42408092 15.55717572 55.4609375 12.859375 C55.45589203 12.03016541 55.45084656 11.20095581 55.44564819 10.34661865 C55.5103621 6.56667789 55.56110492 4.60998977 57.81494141 1.47753906 C61.02934316 -0.69604299 63.21290404 -0.54101371 67 0 C69.18334961 1.40429688 69.18334961 1.40429688 71 4 C71.61354906 7.33998822 71.58413619 10.64279728 71.56640625 14.03125 C71.57260483 15.01814819 71.57880341 16.00504639 71.58518982 17.02185059 C71.59229305 19.11318985 71.58910524 21.2045856 71.57641602 23.29589844 C71.56266773 26.46138034 71.59647261 29.62383567 71.63476562 32.7890625 C71.69427447 48.37189965 69.69138881 60.1714689 58.34375 71.6796875 C48.56479919 80.61409256 37.62823726 82.68128487 24.77734375 82.3671875 C13.52021027 81.74338879 5.463806 76.14233382 -2 68 C-9.96218818 58.23664028 -12.13625677 47.62158259 -12.203125 35.27734375 C-12.20882507 34.4542421 -12.21452515 33.63114044 -12.22039795 32.78309631 C-12.22980316 31.0509671 -12.23636401 29.31882035 -12.24023438 27.58666992 C-12.24998256 24.94223066 -12.28106459 22.29855556 -12.3125 19.65429688 C-12.3190271 17.96615042 -12.32427872 16.27799844 -12.328125 14.58984375 C-12.3404718 13.80326889 -12.3528186 13.01669403 -12.36553955 12.20628357 C-12.34699137 7.62628431 -11.87332745 4.62751032 -9 1 C-5.90826248 -0.54586876 -3.40570448 -0.29359521 0 0 Z " fill="#FFFEFC" transform="translate(259,206)"/>
<path d="M0 0 C1.9375 1.0625 1.9375 1.0625 3 3 C3.89664797 10.66141385 1.13723504 15.83552147 -2.30078125 22.56640625 C-3.12729439 24.23218971 -3.12729439 24.23218971 -3.97050476 25.93162537 C-5.43960595 28.88604669 -6.92192019 31.83330088 -8.41143799 34.77746582 C-10.46290148 38.84148406 -12.48699552 42.91925226 -14.51754761 46.9937439 C-15.66224924 49.28726837 -16.81028827 51.57913026 -17.96170044 53.86929321 C-20.76809801 59.46108711 -23.52258459 65.06851806 -26.16943359 70.73779297 C-26.66606003 71.79876694 -27.16268646 72.85974091 -27.67436218 73.9528656 C-28.60354505 75.94904986 -29.52385438 77.94939753 -30.43367004 79.95448303 C-31.05274483 81.28400246 -31.05274483 81.28400246 -31.68432617 82.64038086 C-32.03710129 83.41361191 -32.3898764 84.18684296 -32.75334167 84.98350525 C-34.22420127 87.36265004 -35.5975302 88.57808106 -38 90 C-41.5 90 -41.5 90 -45 89 C-48.09827302 85.61924072 -50.29477375 81.9283082 -52.49609375 77.921875 C-52.81151627 77.35100159 -53.12693878 76.78012817 -53.45191956 76.19195557 C-54.45157115 74.38038342 -55.444666 72.56531578 -56.4375 70.75 C-57.09917056 69.54793543 -57.76127662 68.34611048 -58.42382812 67.14453125 C-59.70272052 64.8247637 -60.97657239 62.50246836 -62.24780273 60.1784668 C-63.33852039 58.19991682 -64.44251141 56.22855304 -65.56665039 54.26879883 C-66.01903076 53.48013428 -66.47141113 52.69146973 -66.9375 51.87890625 C-67.52144531 50.87839233 -67.52144531 50.87839233 -68.1171875 49.85766602 C-69.59407026 46.74992239 -69.58893364 44.33729063 -69 41 C-67.4375 38.5625 -67.4375 38.5625 -65 37 C-61.5625 36.375 -61.5625 36.375 -58 37 C-53.29010276 41.764302 -50.41478805 47.4244839 -47.3125 53.3125 C-46.3553695 55.12380273 -45.39337701 56.93254738 -44.42578125 58.73828125 C-44.00723877 59.53274658 -43.58869629 60.32721191 -43.1574707 61.14575195 C-42.12850538 63.15321595 -42.12850538 63.15321595 -40 64 C-39.4740625 62.20949219 -39.4740625 62.20949219 -38.9375 60.3828125 C-36.65872493 53.5597979 -33.26834195 47.26132386 -30 40.875 C-28.64620957 38.2114164 -27.29688417 35.54559346 -25.94921875 32.87890625 C-25.61339279 32.21531601 -25.27756683 31.55172577 -24.93156433 30.86802673 C-22.78939648 26.61802742 -20.72213259 22.33954856 -18.70703125 18.02734375 C-17.96743164 16.44493896 -17.96743164 16.44493896 -17.21289062 14.83056641 C-16.30050174 12.86422203 -15.39642092 10.89399457 -14.50195312 8.91943359 C-14.09525391 8.04496582 -13.68855469 7.17049805 -13.26953125 6.26953125 C-12.92510986 5.51260986 -12.58068848 4.75568848 -12.22583008 3.97583008 C-8.97144229 -1.2696908 -5.76365435 -1.46711202 0 0 Z " fill="#FBFEFC" transform="translate(432,32)"/>
<path d="M0 0 C0.76323074 -0.00540298 1.52646149 -0.01080597 2.31282043 -0.01637268 C4.8267843 -0.02884376 7.33959925 -0.01238065 9.85351562 0.00561523 C11.60559143 0.00546021 13.35766758 0.00397062 15.10974121 0.00120544 C18.77823076 -0.00017782 22.446329 0.01236715 26.11474609 0.03515625 C30.81243361 0.06354076 35.50947111 0.06080264 40.20720673 0.04806614 C43.82409193 0.04110462 47.4408274 0.04890363 51.05769348 0.06132317 C52.78961106 0.06583308 54.52154473 0.06617849 56.25346375 0.06225777 C58.67582028 0.05934088 61.09728725 0.07587454 63.51953125 0.09765625 C64.23240799 0.0931546 64.94528473 0.08865295 65.67976379 0.08401489 C70.43494805 0.1549071 73.84000271 1.08194607 77.25976562 4.50170898 C77.72458776 10.66060227 77.72458776 10.66060227 75.94726562 13.87670898 C72.48898984 17.20690048 68.24602123 16.6679612 63.74658203 16.69458008 C62.98364334 16.70275757 62.22070465 16.71093506 61.43464661 16.71936035 C58.91021505 16.74417072 56.38583948 16.76071737 53.86132812 16.77514648 C52.99874767 16.78047016 52.13616722 16.78579384 51.24744797 16.79127884 C46.68352904 16.81798893 42.1196373 16.83737238 37.55566406 16.85180664 C33.77840016 16.86515818 30.00167492 16.89303563 26.22460938 16.93383789 C21.66289965 16.98311517 17.10167934 17.00792119 12.53971481 17.01503372 C10.80215487 17.02175096 9.06460604 17.0369854 7.32719803 17.06092453 C4.89479796 17.09253298 2.46428966 17.09262047 0.03173828 17.08520508 C-1.04228996 17.10981308 -1.04228996 17.10981308 -2.13801575 17.13491821 C-5.97944353 17.08702828 -7.62917745 16.58891369 -10.68692017 14.18789673 C-12.74023438 11.50170898 -12.74023438 11.50170898 -13.36523438 7.93920898 C-12.74023438 4.50170898 -12.74023438 4.50170898 -10.68493652 2.31822205 C-7.05140349 0.07678645 -4.13948128 -0.05613926 0 0 Z " fill="#3F4250" transform="translate(413.740234375,197.498291015625)"/>
<path d="M0 0 C1.96223511 -0.01891296 1.96223511 -0.01891296 3.96411133 -0.03820801 C5.38884012 -0.0310482 6.81356399 -0.02284422 8.23828125 -0.01367188 C9.70272072 -0.01636736 11.16715844 -0.02025026 12.6315918 -0.02526855 C15.69825305 -0.03116106 18.76444774 -0.02260934 21.83105469 -0.00390625 C25.75891761 0.01888402 29.68568731 0.00575949 33.61351013 -0.01819611 C36.63676162 -0.03266128 39.65975458 -0.02804499 42.68301392 -0.01768494 C44.13107432 -0.0150196 45.57915831 -0.0182807 47.02719116 -0.02760315 C49.05197695 -0.03777847 51.07684519 -0.0195152 53.1015625 0 C54.82886597 0.00477356 54.82886597 0.00477356 56.59106445 0.00964355 C60.19918173 0.62885398 61.38480092 1.60898061 63.55078125 4.51757812 C64.10356222 8.38704492 64.29615677 10.51664688 61.92260742 13.70397949 C58.82115541 16.07548091 56.98353612 16.02442806 53.1015625 16.03515625 C51.13932739 16.05406921 51.13932739 16.05406921 49.13745117 16.07336426 C47.71272238 16.06620445 46.28799851 16.05800047 44.86328125 16.04882812 C43.39884178 16.05152361 41.93440406 16.05540651 40.4699707 16.0604248 C37.40330945 16.06631731 34.33711476 16.05776559 31.27050781 16.0390625 C27.34264489 16.01627223 23.41587519 16.02939676 19.48805237 16.05335236 C16.46480088 16.06781753 13.44180792 16.06320124 10.41854858 16.05284119 C8.97048818 16.05017585 7.52240419 16.05343695 6.07437134 16.0627594 C4.04958555 16.07293472 2.02471731 16.05467145 0 16.03515625 C-1.15153564 16.03197388 -2.30307129 16.0287915 -3.48950195 16.0255127 C-7.09761923 15.40630227 -8.28323842 14.42617564 -10.44921875 11.51757812 C-11.00199972 7.64811133 -11.19459427 5.51850937 -8.82104492 2.33117676 C-5.71959291 -0.04032466 -3.88197362 0.01072819 0 0 Z " fill="#3C3F4D" transform="translate(427.44921875,234.482421875)"/>
</svg>
